# xmcd
#
# Track frame offsets:
#   150
#   13067
#   25610
#   39354
#   51855
#   63415
#   75972
#   86781
#   99894
#   112865
#   124669
#   137392
#   149120
#   162021
#   174454
#   186841
#   198482
#   211471
#   223753
#   236735
#   248208
#   260789
#   273592
#   285161
#   298028
#
# Disc length: 4126 seconds
#
# Revision: 2
# Processed by: cddbd v1.5.1PL0 Copyright (c) Steve Scherf et al.
# Submitted via: Media_Universe 3.0
#
DISCID=69101c19
DTITLE=Roy Acuff 1936-1948 - Les Triomphes De La Country Music Vol.11
DYEAR=2002
DGENRE=Country
TTITLE0=Great Speckle Bird
TTITLE1=Wabash Cannonball
TTITLE2=You're The Only Star In My Blue Heaven
TTITLE3=Yes, Sir, That's My Baby
TTITLE4=You Gotta See Mama Every Night
TTITLE5=Charming Betsy
TTITLE6=Steamboat Whistle Blues
TTITLE7=Sad Memories
TTITLE8=Steel Guitar Blues
TTITLE9=Red Lips
TTITLE10=An Old Three Room Shack
TTITLE11=Shout Oh Lula
TTITLE12=One Old Shirt
TTITLE13=Automobile Of Life
TTITLE14=Honky-Tonky Mamas
TTITLE15=Smokey Mountain Rag
TTITLE16=Ida Red
TTITLE17=The Streamlined Cannonball
TTITLE18=Stuck Up Blues
TTITLE19=Low And Lonely
TTITLE20=Night Train To Memphis
TTITLE21=Jole Blon
TTITLE22=Waltz Of The Wind
TTITLE23=Tennessee Waltz
TTITLE24=Old Age Pension Check
EXTD=YEAR: 2002
EXTT0=
EXTT1=
EXTT2=
EXTT3=
EXTT4=
EXTT5=
EXTT6=
EXTT7=
EXTT8=
EXTT9=
EXTT10=
EXTT11=
EXTT12=
EXTT13=
EXTT14=
EXTT15=
EXTT16=
EXTT17=
EXTT18=
EXTT19=
EXTT20=
EXTT21=
EXTT22=
EXTT23=
EXTT24=
PLAYORDER=
